HIERARCHY
ROOT joint_Root
{
	OFFSET 0.0 0.0 0.0
	CHANNELS 6 Xposition Yposition Zposition Zrotation Xrotation Yrotation 
	JOINT Hips
	{
		OFFSET 4.5925 91.4895 -427.239
		CHANNELS 6 Xposition Yposition Zposition Zrotation Xrotation Yrotation 
		JOINT Spine
		{
			OFFSET 15.7357 0.0 0.0
			CHANNELS 6 Xposition Yposition Zposition Zrotation Xrotation Yrotation 
			JOINT Chest
			{
				OFFSET 8.98455 -0.406207 0.0
				CHANNELS 6 Xposition Yposition Zposition Zrotation Xrotation Yrotation 
				JOINT Neck
				{
					OFFSET 16.3773 0.0 0.0
					CHANNELS 6 Xposition Yposition Zposition Zrotation Xrotation Yrotation 
					JOINT Head
					{
						OFFSET 6.45672 0.0 0.0
						CHANNELS 6 Xposition Yposition Zposition Zrotation Xrotation Yrotation 
						End Site
						{
							OFFSET 0.0 0.0 0.0
						}
					}
				}
				JOINT Shoulder_L
				{
					OFFSET 12.9942 -0.242716 4.98039
					CHANNELS 6 Xposition Yposition Zposition Zrotation Xrotation Yrotation 
					JOINT UpperArm_L
					{
						OFFSET 5.34809 0.0 0.0
						CHANNELS 6 Xposition Yposition Zposition Zrotation Xrotation Yrotation 
						JOINT LowerArm_L
						{
							OFFSET 24.3286 1.87007e-05 0.0
							CHANNELS 6 Xposition Yposition Zposition Zrotation Xrotation Yrotation 
							JOINT Hand_L
							{
								OFFSET 22.2916 0.0 0.0
								CHANNELS 6 Xposition Yposition Zposition Zrotation Xrotation Yrotation 
								End Site
								{
									OFFSET 0.0 0.0 0.0
								}
							}
						}
					}
				}
				JOINT Shoulder_R
				{
					OFFSET 12.9945 -0.242716 -4.98039
					CHANNELS 6 Xposition Yposition Zposition Zrotation Xrotation Yrotation 
					JOINT UpperArm_R
					{
						OFFSET -5.34813 0.0 0.0
						CHANNELS 6 Xposition Yposition Zposition Zrotation Xrotation Yrotation 
						JOINT LowerArm_R
						{
							OFFSET -24.3289 0.000322201 0.0
							CHANNELS 6 Xposition Yposition Zposition Zrotation Xrotation Yrotation 
							JOINT Hand_R
							{
								OFFSET -22.2915 -0.000108084 0.0
								CHANNELS 6 Xposition Yposition Zposition Zrotation Xrotation Yrotation 
								End Site
								{
									OFFSET 0.0 0.0 0.0
								}
							}
						}
					}
				}
			}
		}
		JOINT UpperLeg_L
		{
			OFFSET -2.19248 -6.46944 0.0
			CHANNELS 6 Xposition Yposition Zposition Zrotation Xrotation Yrotation 
			JOINT LowerLeg_L
			{
				OFFSET 39.0811 0.0 -1.23785e-05
				CHANNELS 6 Xposition Yposition Zposition Zrotation Xrotation Yrotation 
				JOINT Foot_L
				{
					OFFSET 40.9854 0.0 -1.26872e-05
					CHANNELS 6 Xposition Yposition Zposition Zrotation Xrotation Yrotation 
					JOINT Toes_L
					{
						OFFSET 11.7543 0.0 0.0
						CHANNELS 6 Xposition Yposition Zposition Zrotation Xrotation Yrotation 
						End Site
						{
							OFFSET 0.0 0.0 0.0
						}
					}
				}
			}
		}
		JOINT UpperLeg_R
		{
			OFFSET -2.19251 6.46944 0.0
			CHANNELS 6 Xposition Yposition Zposition Zrotation Xrotation Yrotation 
			JOINT LowerLeg_R
			{
				OFFSET -39.0811 -0.00228153 -0.0401928
				CHANNELS 6 Xposition Yposition Zposition Zrotation Xrotation Yrotation 
				JOINT Foot_R
				{
					OFFSET -40.9854 0.0 0.0
					CHANNELS 6 Xposition Yposition Zposition Zrotation Xrotation Yrotation 
					JOINT Toes_R
					{
						OFFSET -11.7543 0.0 0.0
						CHANNELS 6 Xposition Yposition Zposition Zrotation Xrotation Yrotation 
						End Site
						{
							OFFSET 0.0 0.0 0.0
						}
					}
				}
			}
		}
	}
}
MOTION
Frames:	7
Frame Time:	0.0333333
0.000000 0.000000 0.000000 0.000000 0.000000 -0.000000 4.254900 90.202800 2.658320 90.922000 -6.043390 10.248400 15.735700 0.000005 -0.000001 88.403800 82.469900 -89.523800 8.984550 -0.406207 -0.000000 7.285360 -0.413292 -2.211380 16.377300 -0.000001 -0.000001 0.964626 -1.646390 -0.766944 6.456720 -0.000001 -0.000000 -12.234800 -0.311931 -3.491630 12.994200 -0.242716 4.980390 -91.967500 6.640390 -73.455100 5.348090 -0.000007 -0.000001 -60.119100 27.062300 -10.652500 24.328600 0.000019 0.000005 5.854980 26.093700 -13.123700 22.291600 -0.000001 0.000005 9.585920 5.171790 3.416150 12.994500 -0.242716 -4.980390 88.378100 10.911000 -81.492200 -5.348130 -0.000001 -0.000004 -63.687800 27.096300 -5.875640 -24.328900 0.000322 -0.000009 1.897580 7.068920 -15.078800 -22.291500 -0.000108 -0.000004 11.778100 5.354700 -1.519370 -2.192480 -6.469440 -0.000000 -179.511000 -14.874100 2.165060 39.081100 -0.000007 -0.000012 -0.106610 0.177369 31.008900 40.985400 -0.000006 -0.000013 2.995820 1.538640 -73.430700 11.754300 -0.000000 0.000003 -0.000171 -0.001622 -16.639000 -2.192510 6.469440 -0.000001 170.546000 14.078400 -179.295000 -39.081100 -0.002282 -0.040193 -0.072238 0.117870 32.652800 -40.985400 0.000008 0.000006 2.328600 10.843900 -72.973800 -11.754300 -0.000006 -0.000006 -0.002359 -0.033124 -17.920100
0.000000 0.000000 0.000000 0.000000 0.000000 -0.000000 4.494920 90.183000 2.404460 91.143700 -6.044010 10.288600 15.735700 0.000005 -0.000001 88.176600 82.436300 -89.348600 8.984550 -0.406207 -0.000000 7.350010 -0.475303 -2.311090 16.377300 -0.000001 -0.000001 1.098250 -1.751760 -0.767343 6.456720 -0.000001 -0.000000 -11.888800 -0.408853 -3.552300 12.994200 -0.242716 4.980390 -91.968700 6.641560 -73.447600 5.348090 -0.000007 -0.000001 -60.193200 27.085600 -11.773200 24.328600 0.000019 0.000005 6.391890 25.414400 -14.629500 22.291600 -0.000001 0.000005 9.261440 5.201640 2.676440 12.994500 -0.242716 -4.980390 88.342800 10.948300 -81.338300 -5.348130 -0.000001 -0.000004 -62.872900 26.081900 -7.290500 -24.328900 0.000322 -0.000009 2.016780 6.349230 -17.672800 -22.291500 -0.000108 -0.000004 11.378200 5.369320 -1.966060 -2.192480 -6.469440 -0.000000 -179.923000 -15.001600 1.921400 39.081100 -0.000007 -0.000012 -0.099609 0.165103 31.103500 40.985400 -0.000006 -0.000013 3.207550 1.540260 -73.314300 11.754300 -0.000000 0.000003 -0.000182 -0.001714 -16.642400 -2.192510 6.469440 -0.000001 170.317000 13.803000 -179.699000 -39.081100 -0.002282 -0.040193 -0.057765 0.094015 33.002700 -40.985400 0.000008 0.000006 2.368660 10.625600 -72.940300 -11.754300 -0.000006 -0.000006 -0.002368 -0.033228 -17.924300
0.000000 0.000000 0.000000 0.000000 0.000000 -0.000000 4.765210 90.157200 2.168930 91.392500 -6.132620 10.365500 15.735700 0.000005 -0.000001 88.049800 82.412500 -89.275600 8.984550 -0.406207 -0.000000 7.396030 -0.510532 -2.415960 16.377300 -0.000001 -0.000001 1.352590 -1.865830 -0.723673 6.456720 -0.000001 -0.000000 -11.573400 -0.510004 -3.656230 12.994200 -0.242716 4.980390 -91.998900 6.693540 -73.330800 5.348090 -0.000007 -0.000001 -60.453900 26.418400 -12.744900 24.328600 0.000019 0.000005 7.150440 24.647700 -16.742300 22.291600 -0.000001 0.000005 8.745020 5.227680 2.013590 12.994500 -0.242716 -4.980390 88.303500 10.895700 -81.094400 -5.348130 -0.000001 -0.000004 -62.060300 24.677300 -8.626070 -24.328900 0.000322 -0.000009 2.234340 5.919480 -20.732700 -22.291500 -0.000108 -0.000004 11.320800 5.378130 -2.239810 -2.192480 -6.469440 -0.000000 179.561000 -14.998400 1.728140 39.081100 -0.000007 -0.000012 -0.087714 0.145004 31.170200 40.985400 -0.000006 -0.000013 3.366420 1.277330 -73.198700 11.754300 -0.000000 0.000003 -0.000179 -0.001687 -16.641400 -2.192510 6.469440 -0.000001 170.041000 13.501800 179.913000 -39.081100 -0.002282 -0.040193 -0.036615 0.060548 33.390400 -40.985400 0.000008 0.000006 2.534730 10.407900 -72.957600 -11.754300 -0.000006 -0.000006 -0.002534 -0.035217 -18.005200
0.000000 0.000000 0.000000 0.000000 0.000000 -0.000000 5.058130 90.133800 1.931990 91.683700 -6.255400 10.400200 15.735700 0.000005 -0.000001 87.944600 82.425000 -89.244700 8.984550 -0.406207 -0.000000 7.369730 -0.536846 -2.562790 16.377300 -0.000001 -0.000001 1.701770 -1.987640 -0.688007 6.456720 -0.000001 -0.000000 -11.139400 -0.635100 -3.671740 12.994200 -0.242716 4.980390 -92.032600 6.745650 -73.188200 5.348090 -0.000007 -0.000001 -60.648900 25.535200 -13.682600 24.328600 0.000019 0.000005 8.082920 24.002000 -19.245500 22.291600 -0.000001 0.000005 8.283940 5.245870 1.540950 12.994500 -0.242716 -4.980390 88.283500 10.803600 -80.916500 -5.348130 -0.000001 -0.000004 -61.130700 23.308600 -9.908450 -24.328900 0.000322 -0.000009 2.310440 5.235360 -23.865400 -22.291500 -0.000108 -0.000004 11.926900 5.383040 -2.393620 -2.192480 -6.469440 -0.000000 179.040000 -15.172800 1.518040 39.081100 -0.000007 -0.000012 -0.079930 0.132033 31.189900 40.985400 -0.000006 -0.000013 3.581480 1.183800 -73.067400 11.754300 -0.000000 0.000003 -0.000166 -0.001586 -16.637700 -2.192510 6.469440 -0.000001 169.744000 13.164100 179.450000 -39.081100 -0.002282 -0.040193 -0.005023 0.012427 33.792700 -40.985400 0.000008 0.000006 2.776690 10.191400 -72.987100 -11.754300 -0.000006 -0.000006 -0.002586 -0.035829 -18.030100
0.000000 0.000000 0.000000 0.000000 0.000000 -0.000000 5.346800 90.105300 1.704090 91.970000 -6.400140 10.434100 15.735700 0.000005 -0.000001 87.893500 82.453900 -89.266400 8.984550 -0.406207 -0.000000 7.311170 -0.547267 -2.707830 16.377300 -0.000001 -0.000001 2.157230 -2.113170 -0.699581 6.456720 -0.000001 -0.000000 -10.593500 -0.849272 -3.693340 12.994200 -0.242716 4.980390 -92.064800 6.769900 -72.994700 5.348090 -0.000007 -0.000001 -60.548300 24.945800 -14.911600 24.328600 0.000019 0.000005 8.898740 23.445000 -21.481300 22.291600 -0.000001 0.000005 8.354060 5.256790 1.253500 12.994500 -0.242716 -4.980390 88.287900 10.592400 -80.763900 -5.348130 -0.000001 -0.000004 -60.093600 21.952400 -11.346000 -24.328900 0.000322 -0.000009 2.323350 4.655000 -26.573900 -22.291500 -0.000108 -0.000004 12.532700 5.388350 -2.562460 -2.192480 -6.469440 -0.000000 178.543000 -15.430000 1.316080 39.081100 -0.000007 -0.000012 -0.070074 0.115624 31.218300 40.985400 -0.000006 -0.000013 3.806710 1.128370 -72.955600 11.754300 -0.000000 0.000003 -0.000168 -0.001596 -16.638000 -2.192510 6.469440 -0.000001 169.440000 12.797400 178.982000 -39.081100 -0.002282 -0.040193 0.019530 -0.023901 34.190500 -40.985400 0.000008 0.000006 2.909440 10.001100 -72.980200 -11.754300 -0.000006 -0.000006 -0.002658 -0.036671 -18.064400
0.000000 0.000000 0.000000 0.000000 0.000000 -0.000000 5.645240 90.064800 1.504990 92.278800 -6.548450 10.507600 15.735700 0.000005 -0.000001 87.777300 82.490300 -89.232800 8.984550 -0.406207 -0.000000 7.236770 -0.573696 -2.871510 16.377300 -0.000001 -0.000001 2.678080 -2.252340 -0.731072 6.456720 -0.000001 -0.000000 -9.816820 -1.051260 -3.779040 12.994200 -0.242716 4.980390 -92.062100 6.712870 -72.879900 5.348090 -0.000007 -0.000001 -60.141800 24.576800 -16.306900 24.328600 0.000019 0.000005 9.654120 23.086300 -23.451700 22.291600 -0.000001 0.000005 8.913190 5.261940 1.114880 12.994500 -0.242716 -4.980390 88.308400 10.353800 -80.668600 -5.348130 -0.000001 -0.000004 -58.920400 20.432900 -12.896700 -24.328900 0.000322 -0.000009 2.497960 4.551320 -28.810700 -22.291500 -0.000108 -0.000004 12.794400 5.388050 -2.552920 -2.192480 -6.469440 -0.000000 178.043000 -15.712200 1.162000 39.081100 -0.000007 -0.000012 -0.060437 0.099528 31.268100 40.985400 -0.000006 -0.000013 4.050710 1.128320 -72.878300 11.754300 -0.000000 0.000003 -0.000172 -0.001632 -16.639400 -2.192510 6.469440 -0.000001 169.020000 12.491800 178.563000 -39.081100 -0.002282 -0.040193 0.019979 -0.024184 34.605500 -40.985400 0.000008 0.000006 2.698100 10.010500 -72.873000 -11.754300 -0.000006 -0.000006 -0.002708 -0.037252 -18.088000
0.000000 0.000000 0.000000 0.000000 0.000000 -0.000000 5.919890 90.027900 1.316840 92.557100 -6.619260 10.622600 15.735700 0.000005 -0.000001 87.439100 82.529500 -88.963100 8.984550 -0.406207 -0.000000 7.153380 -0.657075 -3.003680 16.377300 -0.000001 -0.000001 3.303480 -2.387960 -0.816978 6.456720 -0.000001 -0.000000 -8.922540 -1.242100 -3.972520 12.994200 -0.242716 4.980390 -92.068600 6.715520 -72.835200 5.348090 -0.000007 -0.000001 -59.211800 24.100400 -17.880900 24.328600 0.000019 0.000005 10.702300 23.524000 -25.337400 22.291600 -0.000001 0.000005 9.041610 5.264860 1.036720 12.994500 -0.242716 -4.980390 88.325700 10.115600 -80.551000 -5.348130 -0.000001 -0.000004 -57.595500 18.744900 -14.527700 -24.328900 0.000322 -0.000009 2.647490 4.478090 -30.646200 -22.291500 -0.000108 -0.000004 12.859100 5.388360 -2.563110 -2.192480 -6.469440 -0.000000 177.589000 -15.954500 1.071230 39.081100 -0.000007 -0.000012 -0.050030 0.082275 31.303500 40.985400 -0.000006 -0.000013 4.278350 1.115490 -72.800400 11.754300 -0.000000 0.000003 -0.000165 -0.001577 -16.637300 -2.192510 6.469440 -0.000001 168.630000 12.210300 178.234000 -39.081100 -0.002282 -0.040193 0.020387 -0.024428 34.986800 -40.985400 0.000008 0.000006 2.523240 9.950420 -72.759400 -11.754300 -0.000006 -0.000006 -0.002614 -0.036159 -18.043500
